<svg width="512" height="512" xmlns="http://www.w3.org/2000/svg">
 <title>ptahlogo</title>

 <g id="Layer_1">
  <title>Layer 1</title>
  <path stroke="#007fff" id="svg_1" d="m420.31237,233.53062c29.598,-33.11208 35.54738,-78.29866 19.4461,-116.30026l-59.4205,67.42371l-58.574,-11.08106l-19.40843,-54.90181l59.27022,-67.26712c-40.76953,-9.98042 -85.68515,2.0686 -115.15277,35.04965c-31.07729,34.77007 -36.16313,82.91986 -16.92789,121.98528l-154.88486,173.30741c-16.48053,18.42562 -14.47279,46.3717 4.46367,62.4015c18.93644,16.0185 47.65137,14.08245 64.12617,-4.34337l154.70341,-173.13644c42.58523,13.35574 91.13781,1.79071 122.35889,-33.13748l-0.00001,-0.00001z" fill="#007fff"/>
  <text font-weight="bold" font-style="italic" transform="matrix(3.12067 0 0 3.04948 -241.841 -256.386)" stroke="#000" xml:space="preserve" text-anchor="start" font-family="'JetBrains Mono'" font-size="24" stroke-width="0" id="svg_4" y="155.0297" x="83.63398" fill="#bf0000">Ptah</text>
  <text transform="matrix(2.42963 0 0 2.53438 -518.18 -595.412)" stroke="#000" font-weight="bold" xml:space="preserve" text-anchor="start" font-family="'JetBrains Mono'" font-size="24" id="svg_5" y="383" x="328" stroke-width="0" fill="#000000">Engine</text>
  <path stroke="#00ff00" id="svg_6" d="m335.73094,140.394l68.97567,0.02603l-2.23828,3.27024l-64.47269,-0.0781l-2.26471,-3.21818l0,0zm0.47401,-43.50164l68.05398,-0.0781l1.975,3.35477l-72.03035,0.02603l2.00137,-3.30271zm-6.7161,21.79809l81.43347,-0.0781l-0.10526,3.35477l-81.27554,-0.05206l-0.05267,-3.22461zm81.50088,0.31115c0,22.20938 -18.27999,40.27693 -40.75283,40.27693c-22.46313,0 -40.73972,-18.07082 -40.73972,-40.27693c0,-22.20622 18.27989,-40.27377 40.73972,-40.27377c22.47284,-0.00326 40.75283,18.06755 40.75283,40.27377zm-40.74963,-43.50165c-24.25626,0 -43.99503,19.51301 -43.99503,43.49837c0,23.98863 19.73877,43.50164 43.99503,43.50164c24.26947,0 44.00494,-19.51301 44.00494,-43.50164c0,-23.98536 -19.73547,-43.49837 -44.00494,-43.49837zm12.34624,43.50165c0,23.73257 -6.50422,40.27693 -12.34624,40.27693c-5.8354,0 -12.33953,-16.54436 -12.33953,-40.27693c0,-23.7391 6.50092,-40.27377 12.33953,-40.27377c5.83872,-0.00326 12.34624,16.53467 12.34624,40.27377zm-12.34624,-43.50165c-10.1332,0 -15.60144,22.41352 -15.60144,43.49837c0,21.09129 5.46824,43.50164 15.60144,43.50164c10.1333,0 15.61146,-22.4136 15.61146,-43.50164c-0.0033,-21.08486 -5.47815,-43.49837 -15.61146,-43.49837zm28.91483,43.50165c0,22.20938 -12.97563,40.27693 -28.91483,40.27693c-15.93589,0 -28.90492,-18.07082 -28.90492,-40.27693c0,-22.20622 12.96903,-40.27377 28.90492,-40.27377c15.93921,-0.00326 28.91483,18.06755 28.91483,40.27377zm-28.91483,-43.50165c-17.73243,0 -32.16684,19.51301 -32.16684,43.49837c0,23.98863 14.4344,43.50164 32.16684,43.50164c17.73904,0 32.17024,-19.51301 32.17024,-43.50164c0,-23.98536 -14.4312,-43.49837 -32.17024,-43.49837z" fill="#00ff00"/>
 </g>
</svg>